<svg xmlns="http://www.w3.org/2000/svg" data-name="Layer 1" viewBox="0 0 64 80" x="0px" y="0px"><path d="M32,22a16,16,0,0,0-6,30.83V55a1,1,0,0,0,1,1h1.5v7h7V56H37a1,1,0,0,0,1-1V52.83A16,16,0,0,0,32,22Zm0,28A12,12,0,1,1,44,38,12,12,0,0,1,32,50Z"/><circle cx="9" cy="5" r="4"/><rect x="36" y="1" width="8" height="8"/><polygon points="51 9 59 9 55 1 51 9"/><polygon points="19.38 5 21.69 9 26.31 9 28.62 5 26.31 1 21.69 1 19.38 5"/><path d="M56,18V12H54v5H41V12H39v5H25V12H23v5H10V12H8v6a1,1,0,0,0,1,1H55A1,1,0,0,0,56,18Z"/><path d="M39.13,36.37l.47-.25a.76.76,0,0,0,.29-1L38.6,32.93a.82.82,0,0,0-1.09-.28l-.47.26a.87.87,0,0,1-.92-.07,6.88,6.88,0,0,0-1.5-.84.79.79,0,0,1-.53-.72v-.51a.78.78,0,0,0-.8-.77H30.71a.78.78,0,0,0-.8.77v.51a.79.79,0,0,1-.53.72,6.88,6.88,0,0,0-1.5.84.87.87,0,0,1-.92.07l-.47-.26a.82.82,0,0,0-1.09.28l-1.29,2.14a.76.76,0,0,0,.29,1l.47.25a.75.75,0,0,1,.39.75,6.48,6.48,0,0,0,0,1.76.75.75,0,0,1-.39.75l-.47.25a.76.76,0,0,0-.29,1l1.29,2.14a.82.82,0,0,0,1.09.28l.47-.26a.87.87,0,0,1,.92.07,6.88,6.88,0,0,0,1.5.84.79.79,0,0,1,.53.72v.51a.78.78,0,0,0,.8.77h2.58a.78.78,0,0,0,.8-.77v-.51a.79.79,0,0,1,.53-.72,6.88,6.88,0,0,0,1.5-.84.87.87,0,0,1,.92-.07l.47.26a.82.82,0,0,0,1.09-.28l1.29-2.14a.76.76,0,0,0-.29-1l-.47-.25a.75.75,0,0,1-.39-.75,6.48,6.48,0,0,0,0-1.76A.75.75,0,0,1,39.13,36.37ZM32,41a3,3,0,1,1,3-3A3,3,0,0,1,32,41Z"/><text x="0" y="79" fill="#000000" font-size="5px" font-weight="bold" font-family="'Helvetica Neue', Helvetica, Arial-Unicode, Arial, Sans-serif"></text><text x="0" y="84" fill="#000000" font-size="5px" font-weight="bold" font-family="'Helvetica Neue', Helvetica, Arial-Unicode, Arial, Sans-serif"></text></svg>