<svg xmlns="http://www.w3.org/2000/svg" xmlns:xlink="http://www.w3.org/1999/xlink" version="1.1" x="0px" y="0px" viewBox="0 0 66 82.5" enable-background="new 0 0 66 66" xml:space="preserve"><g><g><path d="M64.5,57.4h-63c-0.6,0-1,0.4-1,1v5.8c0,0.6,0.4,1,1,1h63c0.6,0,1-0.4,1-1v-5.8C65.5,57.9,65.1,57.4,64.5,57.4z"/></g><g><rect x="24.5" y="43.5" width="5" height="5.8"/></g><g><rect x="24.5" y="31.5" width="5" height="5.8"/></g><g><rect x="36.5" y="43.5" width="5" height="5.8"/></g><g><rect x="24.5" y="19.6" width="5" height="5.8"/></g><g><rect x="24.5" y="7.7" width="5" height="5.8"/></g><g><rect x="36.5" y="31.5" width="5" height="5.8"/></g><g><rect x="36.5" y="7.7" width="5" height="5.8"/></g><g><rect x="36.5" y="19.6" width="5" height="5.8"/></g><g><path d="M48.4,1.7c0-0.6-0.5-1-1-1H18.6c-0.6,0-1,0.4-1,1v53.7h30.8V1.7z M31.5,50.2c0,0.5-0.5,1-1,1h-7c-0.6,0-1-0.5-1-1v-7.8    c0-0.6,0.4-1,1-1h7c0.5,0,1,0.4,1,1V50.2z M31.5,38.3c0,0.6-0.5,1-1,1h-7c-0.6,0-1-0.4-1-1v-7.8c0-0.6,0.4-1,1-1h7    c0.5,0,1,0.4,1,1V38.3z M31.5,26.4c0,0.5-0.5,1-1,1h-7c-0.6,0-1-0.5-1-1v-7.8c0-0.6,0.4-1,1-1h7c0.5,0,1,0.4,1,1V26.4z M31.5,14.4    c0,0.6-0.5,1-1,1h-7c-0.6,0-1-0.4-1-1V6.7c0-0.5,0.4-1,1-1h7c0.5,0,1,0.5,1,1V14.4z M43.5,50.2c0,0.5-0.5,1-1,1h-7    c-0.6,0-1-0.5-1-1v-7.8c0-0.6,0.4-1,1-1h7c0.5,0,1,0.4,1,1V50.2z M43.5,38.3c0,0.6-0.5,1-1,1h-7c-0.6,0-1-0.4-1-1v-7.8    c0-0.6,0.4-1,1-1h7c0.5,0,1,0.4,1,1V38.3z M43.5,26.4c0,0.5-0.5,1-1,1h-7c-0.6,0-1-0.5-1-1v-7.8c0-0.6,0.4-1,1-1h7    c0.5,0,1,0.4,1,1V26.4z M43.5,14.4c0,0.6-0.5,1-1,1h-7c-0.6,0-1-0.4-1-1V6.7c0-0.5,0.4-1,1-1h7c0.5,0,1,0.5,1,1V14.4z"/></g><g><path d="M63.3,22.1c0-0.3-0.1-0.6-0.4-0.8l-10.5-8.9c-0.3-0.3-0.7-0.3-1.1-0.1c-0.4,0.2-0.6,0.5-0.6,0.9v42.2h12.5V22.1z     M58.6,51.2h-3.1c-0.5,0-1-0.5-1-1c0-0.6,0.5-1,1-1h3.1c0.5,0,1,0.4,1,1C59.6,50.8,59.2,51.2,58.6,51.2z M58.6,43.3h-3.1    c-0.5,0-1-0.5-1-1c0-0.5,0.5-1,1-1h3.1c0.5,0,1,0.5,1,1C59.6,42.8,59.2,43.3,58.6,43.3z M58.6,35.3h-3.1c-0.5,0-1-0.4-1-1    c0-0.6,0.5-1,1-1h3.1c0.5,0,1,0.4,1,1C59.6,34.8,59.2,35.3,58.6,35.3z M58.6,27.3h-3.1c-0.5,0-1-0.4-1-1c0-0.6,0.5-1,1-1h3.1    c0.5,0,1,0.4,1,1C59.6,26.9,59.2,27.3,58.6,27.3z"/></g><g><path d="M15.2,13.2c0-0.4-0.2-0.7-0.6-0.9c-0.4-0.2-0.8-0.1-1.1,0.1L3,21.3c-0.2,0.2-0.3,0.5-0.3,0.8v33.4h12.5V13.2z M10.5,51.2    H7.4c-0.6,0-1-0.5-1-1c0-0.6,0.4-1,1-1h3.1c0.6,0,1,0.4,1,1C11.5,50.8,11.1,51.2,10.5,51.2z M10.5,43.3H7.4c-0.6,0-1-0.5-1-1    c0-0.5,0.4-1,1-1h3.1c0.6,0,1,0.5,1,1C11.5,42.8,11.1,43.3,10.5,43.3z M10.5,35.3H7.4c-0.6,0-1-0.4-1-1c0-0.6,0.4-1,1-1h3.1    c0.6,0,1,0.4,1,1C11.5,34.8,11.1,35.3,10.5,35.3z M10.5,27.3H7.4c-0.6,0-1-0.4-1-1c0-0.6,0.4-1,1-1h3.1c0.6,0,1,0.4,1,1    C11.5,26.9,11.1,27.3,10.5,27.3z"/></g></g><text x="0" y="81" fill="#000000" font-size="5px" font-weight="bold" font-family="'Helvetica Neue', Helvetica, Arial-Unicode, Arial, Sans-serif"></text><text x="0" y="86" fill="#000000" font-size="5px" font-weight="bold" font-family="'Helvetica Neue', Helvetica, Arial-Unicode, Arial, Sans-serif"></text></svg>